# xmcd
#
# Track frame offsets: 
#        150
#        32670
#        73777
#        111192
#        133585
#        163750
#        197932
#        227516
#        277475
#        306720
#
# Disc length: 4509 seconds
#
# Revision: 1
# Processed by: cddbd v1.5.2PL0 Copyright (c) Steve Scherf et al.
# Submitted via: ExactAudioCopyFreeDBPlugin 1.0
#
DISCID=9d119b0a
DTITLE=Various Artist - The Meta Collection
DYEAR=2002
DGENRE=Jazz
TTITLE0=Bill Laswell - Mantra
TTITLE1=Bill Laswell - beyond the zero
TTITLE2=Bill Laswell - amorphous
TTITLE3=Jah Wobble - Waxing Moon
TTITLE4=Pharoah Sanders - Samadhi State
TTITLE5=Buckethead - Remember
TTITLE6=Tibetan Monks From Kalimpong Monastry - Mun Pa
TTITLE7=Bill Laswell - Lost Roads (Orchestral Suite)
TTITLE8=Bill Laswell - Reflection
TTITLE9=Bill Laswell - Shining Stone
EXTD=YEAR: 2002
EXTT0=
EXTT1=
EXTT2=
EXTT3=
EXTT4=
EXTT5=
EXTT6=
EXTT7=
EXTT8=
EXTT9=
PLAYORDER=
